<svg width="25" height="22" viewBox="0 0 25 22" fill="none" xmlns="http://www.w3.org/2000/svg">
<path d="M7.19367 12.7589C7.88947 12.7589 8.56203 12.7139 9.19847 12.6302V5.65439C8.5621 5.57079 7.88947 5.52585 7.19367 5.52585C3.22076 5.52585 6.10352e-05 6.98657 6.10352e-05 8.78853V9.49611C6.10352e-05 11.298 3.22076 12.7589 7.19367 12.7589Z" fill="white"/>
<path d="M7.19367 16.4014C7.88947 16.4014 8.56203 16.3564 9.19847 16.2729V14.2282C8.56191 14.3118 7.88966 14.3573 7.19367 14.3573C3.72575 14.3573 0.831252 13.2443 0.151355 11.7629C0.0523419 11.9787 6.10352e-05 12.2021 6.10352e-05 12.4311V13.1387C6.10352e-05 14.9407 3.22076 16.4014 7.19367 16.4014Z" fill="white"/>
<path d="M9.19841 18.0297V17.8708C8.56185 17.9544 7.8896 18 7.19361 18C3.72569 18 0.831191 16.8869 0.151294 15.4055C0.0522808 15.6212 0 15.8447 0 16.0737V16.7813C0 18.5833 3.2207 20.044 7.19361 20.044C7.98812 20.044 8.75229 19.9855 9.4669 19.8776C9.28977 19.5152 9.19841 19.1331 9.19841 18.7373V18.0297Z" fill="white"/>
<path d="M17.5659 0C13.593 0 10.3723 1.46072 10.3723 3.26268V3.97026C10.3723 5.77222 13.593 7.23294 17.5659 7.23294C21.5387 7.23294 24.7595 5.77222 24.7595 3.97026V3.26268C24.7595 1.46072 21.5387 0 17.5659 0Z" fill="white"/>
<path d="M17.5659 8.83144C14.0979 8.83144 11.2034 7.71843 10.5235 6.237C10.4245 6.45272 10.3723 6.67615 10.3723 6.90524V7.61282C10.3723 9.41479 13.593 10.8755 17.5659 10.8755C21.5387 10.8755 24.7595 9.41479 24.7595 7.61282V6.90524C24.7595 6.67615 24.7072 6.45272 24.6082 6.237C23.9283 7.71843 21.0338 8.83144 17.5659 8.83144Z" fill="white"/>
<path d="M17.5659 12.4741C14.0979 12.4741 11.2034 11.361 10.5235 9.87967C10.4245 10.0954 10.3723 10.3188 10.3723 10.5479V11.2555C10.3723 13.0575 13.593 14.5182 17.5659 14.5182C21.5387 14.5182 24.7595 13.0575 24.7595 11.2555V10.5479C24.7595 10.3188 24.7072 10.0954 24.6082 9.87967C23.9283 11.3611 21.0338 12.4741 17.5659 12.4741Z" fill="white"/>
<path d="M17.5659 16.3133C14.0979 16.3133 11.2034 15.2003 10.5235 13.7189C10.4245 13.9347 10.3723 14.158 10.3723 14.3871V15.0947C10.3723 16.8967 13.593 18.3574 17.5659 18.3574C21.5387 18.3574 24.7595 16.8967 24.7595 15.0947V14.3871C24.7595 14.158 24.7072 13.9346 24.6082 13.7189C23.9283 15.2002 21.0338 16.3133 17.5659 16.3133Z" fill="white"/>
<path d="M17.5659 19.9559C14.0979 19.9559 11.2034 18.8429 10.5235 17.3616C10.4245 17.5774 10.3723 17.8008 10.3723 18.0298V18.7373C10.3723 20.5393 13.593 22 17.5659 22C21.5387 22 24.7595 20.5393 24.7595 18.7373V18.0297C24.7595 17.8007 24.7072 17.5772 24.6082 17.3615C23.9283 18.8429 21.0338 19.9559 17.5659 19.9559Z" fill="white"/>
</svg>
