<svg width="163" height="163" viewBox="0 0 163 163" fill="none" xmlns="http://www.w3.org/2000/svg">
<path d="M81.5 132.859C109.865 132.859 132.859 109.865 132.859 81.5C132.859 53.135 109.865 30.1406 81.5 30.1406C53.135 30.1406 30.1406 53.135 30.1406 81.5C30.1406 109.865 53.135 132.859 81.5 132.859Z" fill="#3397E8"/>
<path d="M85.0421 62.0189C90.9107 62.0189 95.6681 57.2615 95.6681 51.3929C95.6681 45.5244 90.9107 40.7669 85.0421 40.7669C79.1736 40.7669 74.4161 45.5244 74.4161 51.3929C74.4161 57.2615 79.1736 62.0189 85.0421 62.0189Z" fill="#88C791"/>
<path d="M84.2031 92.3125C87.1889 92.3125 89.6094 89.892 89.6094 86.9062C89.6094 83.9205 87.1889 81.5 84.2031 81.5C81.2173 81.5 78.7969 83.9205 78.7969 86.9062C78.7969 89.892 81.2173 92.3125 84.2031 92.3125Z" fill="#88C791"/>
<path d="M51.7656 99.0703C51.7656 100.146 52.1928 101.177 52.9532 101.937C53.7136 102.698 54.745 103.125 55.8203 103.125H57.1719C58.6057 103.125 59.9808 103.695 60.9947 104.708C62.0086 105.722 62.5781 107.097 62.5781 108.531C62.5781 109.965 62.0086 111.34 60.9947 112.354C59.9808 113.368 58.6057 113.938 57.1719 113.938H41.6796C37.1097 108.326 33.7769 101.813 31.8995 94.8242C30.0221 87.8353 29.6425 80.5287 30.7855 73.3829C31.9285 66.2371 34.5683 59.4135 38.5321 53.359C42.4959 47.3044 47.6941 42.1557 53.7862 38.25H57.1719C59.3226 38.25 61.3853 39.1044 62.9061 40.6252C64.4269 42.146 65.2813 44.2086 65.2813 46.3594C65.2813 48.5101 64.4269 50.5728 62.9061 52.0936C61.3853 53.6144 59.3226 54.4687 57.1719 54.4688H54.4688C52.318 54.4688 50.2554 55.3231 48.7346 56.8439C47.2138 58.3647 46.3594 60.4274 46.3594 62.5781C46.3594 64.7289 47.2138 66.7915 48.7346 68.3123C50.2554 69.8331 52.318 70.6875 54.4688 70.6875H55.8203C59.0464 70.6875 62.1404 71.9691 64.4216 74.2503C66.7028 76.5315 67.9844 79.6255 67.9844 82.8516C67.9844 86.0777 66.7028 89.1716 64.4216 91.4529C62.1404 93.7341 59.0464 95.0156 55.8203 95.0156C54.745 95.0156 53.7136 95.4428 52.9532 96.2032C52.1928 96.9636 51.7656 97.9949 51.7656 99.0703V99.0703Z" fill="#88C791"/>
<path d="M132.859 81.5C132.86 92.1446 129.554 102.527 123.399 111.211C117.243 119.896 108.543 126.454 98.4993 129.981C98.2323 129.818 97.9722 129.646 97.7187 129.467C94.4123 127.165 91.9269 123.868 90.6242 120.056C89.3215 116.244 89.2696 112.115 90.4759 108.271C91.6823 104.428 94.084 101.069 97.3315 98.6849C100.579 96.3007 104.503 95.0153 108.531 95.0156H109.883C111.675 95.0156 113.394 94.3036 114.661 93.0363C115.929 91.769 116.641 90.0501 116.641 88.2578C116.641 86.4655 115.929 84.7466 114.661 83.4793C113.394 82.212 111.675 81.5 109.883 81.5H107.18C104.67 81.5 102.264 80.5032 100.49 78.729C98.7155 76.9547 97.7187 74.5483 97.7187 72.0391C97.7187 69.5299 98.7155 67.1234 100.49 65.3492C102.264 63.5749 104.67 62.5781 107.18 62.5781H129.264C131.647 68.6018 132.866 75.0223 132.859 81.5V81.5Z" fill="#88C791"/>
<path d="M150.886 51.2139C151.028 51.5391 151.233 51.8332 151.489 52.0792C151.745 52.3253 152.047 52.5186 152.377 52.648C152.708 52.7774 153.061 52.8405 153.416 52.8335C153.771 52.8266 154.121 52.7499 154.446 52.6077C154.771 52.4654 155.065 52.2606 155.311 52.0047C155.557 51.7488 155.751 51.447 155.88 51.1165C156.009 50.7859 156.072 50.4331 156.066 50.0782C156.059 49.7233 155.982 49.3732 155.84 49.048C154.36 45.6669 152.651 42.3906 150.726 39.2417C150.541 38.9389 150.298 38.6755 150.011 38.4666C149.724 38.2578 149.399 38.1074 149.054 38.0243C148.708 37.9412 148.35 37.9268 148 37.982C147.649 38.0373 147.313 38.1611 147.01 38.3463C146.707 38.5315 146.444 38.7746 146.235 39.0616C146.026 39.3486 145.876 39.674 145.792 40.0191C145.709 40.3642 145.695 40.7223 145.75 41.0729C145.805 41.4236 145.929 41.7599 146.114 42.0628C147.911 45.0011 149.505 48.0586 150.886 51.2139V51.2139Z" fill="#323a47"/>
<path d="M154.361 60.9363C155.294 64.2534 155.999 67.6304 156.472 71.0436C156.561 71.6898 156.881 72.2819 157.372 72.7108C157.864 73.1397 158.494 73.3763 159.146 73.3771C159.27 73.377 159.394 73.3684 159.518 73.3514C159.869 73.3029 160.208 73.1855 160.514 73.006C160.821 72.8266 161.088 72.5885 161.303 72.3055C161.517 72.0225 161.674 71.7001 161.763 71.3566C161.853 71.0131 161.874 70.6553 161.825 70.3037C161.319 66.6453 160.564 63.0258 159.564 59.4705C159.47 59.126 159.309 58.8034 159.09 58.5213C158.871 58.2393 158.598 58.0035 158.287 57.8275C157.977 57.6515 157.634 57.5388 157.28 57.4959C156.925 57.453 156.566 57.4808 156.222 57.5776C155.878 57.6744 155.557 57.8383 155.277 58.06C154.997 58.2816 154.764 58.5565 154.591 58.8688C154.418 59.1811 154.308 59.5246 154.269 59.8794C154.229 60.2343 154.26 60.5935 154.36 60.9363H154.361Z" fill="#323a47"/>
<path d="M8.47132 52.8198C8.79701 52.9611 9.14734 53.0368 9.50229 53.0427C9.85725 53.0485 10.2099 52.9844 10.5401 52.854C10.8702 52.7236 11.1715 52.5294 11.4266 52.2825C11.6817 52.0356 11.8857 51.7409 12.0269 51.4152C13.3995 48.2526 14.9866 45.1874 16.777 42.2412C16.9614 41.9378 17.0843 41.6012 17.1386 41.2503C17.1929 40.8995 17.1775 40.5415 17.0935 40.1966C17.0094 39.8517 16.8582 39.5267 16.6485 39.2403C16.4388 38.9538 16.1748 38.7115 15.8715 38.5271C15.5681 38.3427 15.2315 38.2198 14.8806 38.1655C14.5298 38.1112 14.1718 38.1265 13.8269 38.2106C13.482 38.2947 13.157 38.4459 12.8706 38.6556C12.5841 38.8652 12.3418 39.1293 12.1574 39.4326C10.2384 42.5903 8.53756 45.8755 7.06671 49.2652C6.78174 49.9229 6.76963 50.6668 7.03303 51.3334C7.29643 51.9999 7.81378 52.5346 8.47132 52.8198V52.8198Z" fill="#323a47"/>
<path d="M17.9756 34.5084C18.266 34.7127 18.5938 34.8577 18.9402 34.9352C19.2867 35.0127 19.645 35.0213 19.9947 34.9603C20.3444 34.8994 20.6787 34.7701 20.9785 34.58C21.2783 34.3898 21.5377 34.1424 21.7419 33.852C23.7258 31.0324 25.9 28.3516 28.2493 25.8283C28.4913 25.5686 28.6797 25.2637 28.8038 24.9311C28.928 24.5986 28.9854 24.2448 28.9728 23.89C28.9602 23.5353 28.8778 23.1864 28.7304 22.8635C28.583 22.5406 28.3735 22.2498 28.1137 22.0079C27.854 21.7659 27.5491 21.5775 27.2165 21.4534C26.8839 21.3292 26.5302 21.2718 26.1754 21.2844C25.8206 21.297 25.4718 21.3793 25.1489 21.5267C24.8259 21.6741 24.5352 21.8837 24.2932 22.1435C21.7753 24.8478 19.4451 27.7211 17.319 30.7432C16.9069 31.3296 16.7446 32.0557 16.8677 32.7618C16.9909 33.4679 17.3894 34.0961 17.9756 34.5084V34.5084Z" fill="#323a47"/>
<path d="M31.9533 19.6022C32.1745 19.8799 32.4483 20.1112 32.7589 20.2831C33.0695 20.455 33.411 20.564 33.7637 20.6039C34.1165 20.6438 34.4736 20.6138 34.8148 20.5157C35.156 20.4175 35.4745 20.2532 35.7521 20.0319C38.4492 17.8843 41.2898 15.9235 44.2541 14.1632C44.5594 13.982 44.826 13.7424 45.0387 13.4582C45.2513 13.174 45.406 12.8507 45.4937 12.5067C45.5814 12.1627 45.6005 11.8048 45.55 11.4534C45.4994 11.1021 45.3801 10.7641 45.1989 10.4589C45.0177 10.1536 44.7781 9.887 44.4939 9.67432C44.2097 9.46164 43.8864 9.30702 43.5424 9.21929C43.1984 9.13156 42.8405 9.11244 42.4891 9.16303C42.1378 9.21361 41.7998 9.33291 41.4946 9.51411C38.3174 11.4008 35.273 13.5024 32.3826 15.8043C31.8221 16.2511 31.4621 16.9022 31.3816 17.6144C31.3011 18.3266 31.5067 19.0416 31.9533 19.6022V19.6022Z" fill="#323a47"/>
<path d="M3.45747 73.5849C3.80933 73.6329 4.16721 73.611 4.5106 73.5205C4.854 73.4299 5.17616 73.2726 5.45864 73.0573C5.74112 72.8421 5.97837 72.5733 6.1568 72.2662C6.33523 71.9592 6.45134 71.62 6.49848 71.268C6.96041 67.8533 7.65538 64.4741 8.57854 61.1543C8.77058 60.4635 8.68036 59.7248 8.32772 59.1005C7.97509 58.4763 7.38892 58.0177 6.69817 57.8257C6.00743 57.6336 5.26869 57.7239 4.64446 58.0765C4.02023 58.4291 3.56166 59.0153 3.36961 59.7061C2.37989 63.2644 1.63479 66.8862 1.13954 70.5463C1.04415 71.2566 1.23474 71.9757 1.66941 72.5455C2.10407 73.1153 2.74722 73.4892 3.45747 73.5849V73.5849Z" fill="#323a47"/>
<path d="M76.0316 6.00037C76.0941 6.00037 76.1573 5.99834 76.2201 5.99395C79.6602 5.75834 83.1121 5.75315 86.5528 5.9784C86.908 6.00357 87.2646 5.95831 87.6023 5.84524C87.9399 5.73217 88.2518 5.55351 88.5202 5.31952C88.7886 5.08554 89.0081 4.80084 89.1661 4.48177C89.3242 4.1627 89.4176 3.81556 89.4411 3.46028C89.4646 3.10499 89.4176 2.74857 89.303 2.41149C89.1883 2.0744 89.0081 1.76329 88.7729 1.49602C88.5376 1.22875 88.2519 1.01059 87.9321 0.854079C87.6123 0.697564 87.2647 0.605773 86.9093 0.583979C83.2261 0.342893 79.5309 0.348312 75.8484 0.600198C75.1486 0.647219 74.4945 0.964404 74.0242 1.48476C73.5539 2.00511 73.3043 2.68788 73.3281 3.38886C73.3519 4.08984 73.6472 4.75413 74.1516 5.24143C74.6561 5.72872 75.3302 6.00086 76.0316 6.00037Z" fill="#323a47"/>
<path d="M4.20718 94.9271C4.91741 94.8297 5.55985 94.4542 5.99321 93.8831C6.42657 93.3121 6.61535 92.5923 6.51802 91.882C6.05143 88.4664 5.81572 85.0231 5.8125 81.5757C5.81187 80.8592 5.52681 80.1722 5.01994 79.6658C4.51307 79.1594 3.82588 78.8749 3.10938 78.8749H3.10667C2.75169 78.8753 2.40026 78.9456 2.07244 79.0817C1.74462 79.2179 1.44682 79.4173 1.19607 79.6686C0.945309 79.9198 0.746497 80.218 0.61098 80.5461C0.475463 80.8742 0.405896 81.2258 0.406251 81.5808C0.41 85.2721 0.662526 88.9589 1.16211 92.6163C1.21008 92.9681 1.32695 93.307 1.50602 93.6136C1.68509 93.9202 1.92285 94.1885 2.2057 94.4031C2.48856 94.6177 2.81095 94.7745 3.15444 94.8644C3.49794 94.9543 3.85579 94.9756 4.20752 94.9271H4.20718Z" fill="#323a47"/>
<path d="M96.7878 7.35666C100.166 8.05001 103.492 8.97451 106.743 10.1236C107.419 10.3624 108.162 10.323 108.809 10.0141C109.456 9.70515 109.953 9.15206 110.192 8.47638C110.431 7.8007 110.392 7.05775 110.084 6.41089C109.775 5.76403 109.222 5.26622 108.546 5.0269C105.061 3.79559 101.495 2.80494 97.8742 2.06191C97.1718 1.91786 96.4411 2.05869 95.8426 2.45344C95.2441 2.84818 94.827 3.4645 94.683 4.1668C94.5389 4.86911 94.6797 5.59988 95.0745 6.19834C95.4692 6.79681 96.0855 7.21396 96.7878 7.35801V7.35666Z" fill="#323a47"/>
<path d="M55.1418 10.3544C55.4516 10.3543 55.759 10.3009 56.0507 10.1966C59.2961 9.03905 62.617 8.10541 65.9901 7.40228C66.3376 7.32991 66.6675 7.18979 66.9609 6.98994C67.2543 6.79008 67.5054 6.5344 67.7 6.23749C67.8945 5.94058 68.0287 5.60825 68.0948 5.25949C68.161 4.91072 68.1578 4.55234 68.0854 4.20482C68.013 3.85729 67.8729 3.52743 67.673 3.23405C67.4732 2.94067 67.2175 2.68953 66.9206 2.49497C66.6237 2.30041 66.2914 2.16623 65.9426 2.1001C65.5938 2.03397 65.2354 2.03719 64.8879 2.10956C61.2717 2.86325 57.7115 3.86407 54.2322 5.10496C53.632 5.31881 53.1265 5.73785 52.8052 6.2881C52.4838 6.83835 52.3672 7.48443 52.4759 8.11231C52.5846 8.74019 52.9116 9.30949 53.3991 9.71972C53.8867 10.13 54.5036 10.3548 55.1408 10.3544H55.1418Z" fill="#323a47"/>
<path d="M116.224 14.2294C119.286 15.8145 122.236 17.6063 125.054 19.5924C125.344 19.7969 125.672 19.9423 126.018 20.0202C126.365 20.0981 126.723 20.107 127.073 20.0465C127.423 19.9859 127.758 19.857 128.058 19.6671C128.358 19.4772 128.617 19.2301 128.822 18.9399C129.027 18.6496 129.172 18.322 129.25 17.9755C129.328 17.6291 129.337 17.2707 129.276 16.9209C129.215 16.571 129.087 16.2365 128.897 15.9364C128.707 15.6363 128.46 15.3766 128.169 15.1721C125.15 13.0443 121.989 11.1246 118.709 9.42624C118.393 9.26048 118.048 9.15876 117.693 9.12693C117.338 9.0951 116.98 9.13379 116.64 9.24077C116.3 9.34775 115.985 9.52092 115.712 9.75029C115.439 9.97967 115.214 10.2607 115.05 10.5773C114.887 10.8939 114.787 11.2397 114.758 11.5949C114.728 11.9501 114.769 12.3076 114.878 12.6469C114.987 12.9862 115.162 13.3006 115.394 13.572C115.625 13.8433 115.907 14.0663 116.225 14.228L116.224 14.2294Z" fill="#323a47"/>
<path d="M140.139 33.6415C140.363 33.9164 140.64 34.1444 140.952 34.3124C141.265 34.4805 141.608 34.5853 141.961 34.6209C142.314 34.6564 142.671 34.6221 143.011 34.5198C143.351 34.4175 143.667 34.2493 143.942 34.0247C144.217 33.8001 144.445 33.5235 144.613 33.2108C144.781 32.8981 144.886 32.5554 144.922 32.2022C144.957 31.849 144.923 31.4923 144.82 31.1523C144.718 30.8124 144.55 30.496 144.325 30.221C141.989 27.3627 139.461 24.6658 136.76 22.1488C136.501 21.905 136.196 21.7148 135.862 21.5891C135.529 21.4635 135.175 21.4048 134.819 21.4166C134.463 21.4284 134.113 21.5104 133.789 21.6578C133.465 21.8053 133.173 22.0152 132.931 22.2757C132.688 22.5362 132.499 22.8421 132.375 23.1758C132.251 23.5095 132.194 23.8644 132.207 24.2201C132.221 24.5759 132.304 24.9255 132.453 25.2489C132.602 25.5723 132.813 25.863 133.075 26.1045C135.597 28.4546 137.957 30.9726 140.139 33.6415V33.6415Z" fill="#323a47"/>
<path d="M12.0845 111.717C10.7081 108.558 9.55018 105.309 8.61876 101.991C8.42233 101.304 7.96182 100.723 7.33795 100.375C6.71409 100.026 5.97762 99.9388 5.28959 100.132C4.60156 100.325 4.01796 100.782 3.66641 101.405C3.31485 102.027 3.22394 102.763 3.41356 103.452C4.41259 107.008 5.65444 110.491 7.13036 113.878C7.26987 114.207 7.47318 114.505 7.72855 114.754C7.98391 115.004 8.28626 115.201 8.61812 115.333C8.94997 115.465 9.30475 115.531 9.66194 115.525C10.0191 115.519 10.3717 115.443 10.6991 115.3C11.0266 115.157 11.3225 114.951 11.5698 114.693C11.817 114.435 12.0108 114.131 12.1397 113.798C12.2687 113.465 12.3303 113.109 12.321 112.752C12.3118 112.395 12.2319 112.043 12.0859 111.717H12.0845Z" fill="#323a47"/>
<path d="M76.3722 157.017C72.9337 156.786 69.5148 156.323 66.1392 155.628C65.7903 155.553 65.4299 155.548 65.079 155.613C64.7281 155.678 64.3935 155.812 64.0945 156.007C63.7956 156.202 63.5382 156.454 63.3373 156.749C63.1363 157.044 62.9958 157.376 62.9237 157.726C62.8517 158.075 62.8495 158.435 62.9175 158.786C62.9854 159.136 63.1221 159.47 63.3195 159.767C63.517 160.064 63.7714 160.319 64.068 160.518C64.3647 160.716 64.6977 160.854 65.0478 160.923C68.6644 161.667 72.3273 162.163 76.0113 162.41C76.0728 162.414 76.1337 162.416 76.1945 162.416C76.8963 162.416 77.5707 162.144 78.0752 161.656C78.5797 161.168 78.8747 160.503 78.8977 159.802C78.9208 159.1 78.6702 158.417 78.1989 157.898C77.7276 157.378 77.0725 157.061 76.3722 157.015V157.017Z" fill="#323a47"/>
<path d="M149.899 119.922C149.596 119.737 149.259 119.614 148.908 119.559C148.558 119.504 148.199 119.519 147.854 119.603C147.509 119.687 147.184 119.838 146.898 120.047C146.611 120.256 146.368 120.52 146.184 120.823C144.389 123.767 142.396 126.586 140.219 129.26C139.782 129.817 139.581 130.524 139.659 131.228C139.738 131.933 140.089 132.578 140.639 133.025C141.188 133.472 141.892 133.686 142.597 133.62C143.303 133.554 143.954 133.214 144.411 132.673C146.743 129.808 148.878 126.789 150.801 123.636C151.173 123.023 151.288 122.288 151.119 121.592C150.95 120.895 150.511 120.295 149.899 119.922V119.922Z" fill="#323a47"/>
<path d="M116.347 148.706C113.288 150.295 110.125 151.672 106.878 152.829C106.544 152.948 106.236 153.132 105.973 153.369C105.709 153.607 105.495 153.895 105.343 154.216C105.191 154.536 105.103 154.884 105.085 155.238C105.067 155.593 105.119 155.948 105.238 156.282C105.357 156.616 105.541 156.924 105.779 157.188C106.017 157.451 106.304 157.665 106.625 157.817C106.946 157.969 107.293 158.057 107.648 158.075C108.002 158.093 108.357 158.041 108.691 157.922C112.171 156.683 115.561 155.207 118.839 153.504C119.476 153.174 119.954 152.604 120.171 151.921C120.387 151.237 120.323 150.495 119.992 149.859C119.661 149.223 119.092 148.744 118.408 148.528C117.724 148.312 116.983 148.376 116.347 148.706V148.706Z" fill="#323a47"/>
<path d="M133.168 136.809C130.649 139.162 127.973 141.342 125.16 143.334C124.87 143.539 124.624 143.799 124.435 144.099C124.245 144.4 124.117 144.734 124.057 145.084C123.997 145.434 124.007 145.793 124.085 146.139C124.164 146.485 124.31 146.812 124.515 147.102C124.72 147.392 124.98 147.638 125.28 147.828C125.581 148.017 125.915 148.145 126.265 148.205C126.615 148.265 126.974 148.255 127.32 148.177C127.666 148.098 127.993 147.952 128.283 147.747C131.296 145.614 134.161 143.28 136.859 140.76C137.121 140.518 137.332 140.227 137.481 139.903C137.63 139.579 137.714 139.229 137.727 138.873C137.74 138.517 137.683 138.162 137.558 137.828C137.433 137.494 137.244 137.188 137.001 136.927C136.757 136.667 136.465 136.457 136.14 136.31C135.815 136.163 135.465 136.082 135.109 136.071C134.752 136.06 134.397 136.12 134.064 136.247C133.731 136.373 133.426 136.565 133.168 136.81V136.809Z" fill="#323a47"/>
<path d="M16.8463 120.873C16.4676 120.272 15.8677 119.844 15.1762 119.682C14.4847 119.52 13.7572 119.637 13.151 120.007C12.5448 120.377 12.1086 120.971 11.9367 121.66C11.7648 122.349 11.871 123.078 12.2324 123.69C14.1563 126.84 16.2917 129.856 18.624 132.717C18.8476 132.994 19.1238 133.224 19.4367 133.395C19.7496 133.565 20.0931 133.672 20.4474 133.709C20.8017 133.746 21.1598 133.712 21.5012 133.61C21.8425 133.508 22.1604 133.34 22.4365 133.115C22.7125 132.89 22.9414 132.612 23.1099 132.299C23.2784 131.985 23.3832 131.641 23.4182 131.286C23.4533 130.932 23.4179 130.574 23.3142 130.233C23.2105 129.892 23.0404 129.575 22.8138 129.3C20.6365 126.629 18.6428 123.814 16.8463 120.873V120.873Z" fill="#323a47"/>
<path d="M96.9366 155.613C93.5617 156.31 90.1432 156.778 86.7049 157.011C86.0062 157.06 85.3536 157.377 84.8844 157.897C84.4151 158.417 84.166 159.099 84.1894 159.798C84.2128 160.498 84.5069 161.162 85.0097 161.649C85.5126 162.137 86.185 162.41 86.8853 162.411C86.9465 162.411 87.0087 162.409 87.0705 162.405C90.7545 162.155 94.4173 161.654 98.0333 160.907C98.7354 160.761 99.3509 160.343 99.7445 159.744C100.138 159.144 100.277 158.413 100.132 157.711C99.9865 157.009 99.5682 156.394 98.9689 156C98.3696 155.607 97.6386 155.467 96.9366 155.613Z" fill="#323a47"/>
<path d="M157.733 100.043C157.391 99.9472 157.034 99.92 156.681 99.9625C156.329 100.005 155.988 100.117 155.679 100.291C155.37 100.465 155.098 100.698 154.879 100.978C154.659 101.257 154.498 101.577 154.402 101.919C153.473 105.239 152.317 108.492 150.943 111.654C150.796 111.98 150.715 112.333 150.706 112.691C150.696 113.048 150.757 113.405 150.886 113.739C151.015 114.073 151.209 114.378 151.457 114.636C151.705 114.894 152.001 115.101 152.33 115.244C152.658 115.386 153.011 115.463 153.369 115.468C153.727 115.473 154.083 115.407 154.415 115.273C154.747 115.14 155.049 114.942 155.304 114.691C155.559 114.44 155.762 114.14 155.901 113.81C157.374 110.42 158.613 106.933 159.609 103.374C159.704 103.032 159.732 102.674 159.689 102.322C159.647 101.97 159.535 101.629 159.361 101.32C159.187 101.01 158.953 100.738 158.674 100.519C158.395 100.3 158.075 100.138 157.733 100.043Z" fill="#323a47"/>
<path d="M37.8837 143.364C35.0683 141.374 32.3908 139.195 29.8696 136.843C29.3454 136.354 28.6483 136.093 27.9317 136.118C27.2152 136.143 26.5379 136.451 26.0487 136.976C25.5596 137.5 25.2988 138.197 25.3236 138.913C25.3485 139.63 25.657 140.307 26.1812 140.796C28.8809 143.316 31.7483 145.649 34.7636 147.78C35.3495 148.184 36.0709 148.34 36.7713 148.216C37.4718 148.091 38.0948 147.695 38.5053 147.114C38.9158 146.533 39.0805 145.813 38.9639 145.111C38.8473 144.409 38.4587 143.782 37.8824 143.365L37.8837 143.364Z" fill="#323a47"/>
<path d="M56.1853 152.851C52.9363 151.697 49.7701 150.322 46.7092 148.736C46.0748 148.424 45.3435 148.372 44.6719 148.593C44.0004 148.814 43.442 149.289 43.1165 149.917C42.7911 150.544 42.7244 151.274 42.9307 151.95C43.1371 152.626 43.6001 153.195 44.2206 153.534C47.5015 155.234 50.8951 156.708 54.3776 157.945C54.7132 158.068 55.0698 158.123 55.427 158.108C55.7842 158.092 56.1347 158.006 56.4583 157.854C56.7819 157.702 57.0722 157.488 57.3123 157.223C57.5524 156.958 57.7376 156.648 57.8572 156.311C57.9767 155.974 58.0282 155.617 58.0088 155.26C57.9893 154.903 57.8992 154.554 57.7437 154.232C57.5882 153.91 57.3704 153.622 57.1029 153.385C56.8354 153.148 56.5235 152.966 56.1853 152.85V152.851Z" fill="#323a47"/>
<path d="M162.594 81.3436C162.594 80.6266 162.309 79.9391 161.802 79.4322C161.295 78.9252 160.607 78.6404 159.891 78.6404C159.174 78.6404 158.486 78.9252 157.979 79.4322C157.472 79.9391 157.187 80.6266 157.187 81.3436V81.5C157.188 84.9469 156.955 88.39 156.492 91.8057C156.395 92.5162 156.585 93.2361 157.019 93.807C157.453 94.3778 158.096 94.7529 158.806 94.8497C159.517 94.9465 160.237 94.7571 160.808 94.3231C161.378 93.8891 161.754 93.2461 161.85 92.5355C162.346 88.8722 162.595 85.1795 162.594 81.4828V81.3436Z" fill="#323a47"/>
<path d="M135.562 81.5C135.562 51.6896 111.31 27.4375 81.5 27.4375C51.6896 27.4375 27.4375 51.6896 27.4375 81.5C27.4375 111.31 51.6896 135.562 81.5 135.562C111.31 135.562 135.562 111.31 135.562 81.5ZM54.6377 40.9531H57.1719C58.6057 40.9531 59.9808 41.5227 60.9947 42.5366C62.0085 43.5504 62.5781 44.9255 62.5781 46.3594C62.5781 47.7932 62.0085 49.1683 60.9947 50.1822C59.9808 51.196 58.6057 51.7656 57.1719 51.7656H54.4688C51.6011 51.7656 48.8509 52.9048 46.8232 54.9325C44.7954 56.9603 43.6562 59.7105 43.6562 62.5781C43.6562 65.4458 44.7954 68.196 46.8232 70.2237C48.8509 72.2515 51.6011 73.3906 54.4688 73.3906H55.8203C58.3295 73.3906 60.7359 74.3874 62.5102 76.1617C64.2845 77.9359 65.2812 80.3424 65.2812 82.8516C65.2812 85.3608 64.2845 87.7672 62.5102 89.5415C60.7359 91.3157 58.3295 92.3125 55.8203 92.3125C54.028 92.3125 52.3092 93.0245 51.0418 94.2918C49.7745 95.5591 49.0625 97.278 49.0625 99.0703C49.0625 100.863 49.7745 102.581 51.0418 103.849C52.3092 105.116 54.028 105.828 55.8203 105.828H57.1719C57.8888 105.828 58.5763 106.113 59.0833 106.62C59.5902 107.127 59.875 107.814 59.875 108.531C59.875 109.248 59.5902 109.936 59.0833 110.443C58.5763 110.95 57.8888 111.234 57.1719 111.234H43.0143C38.9208 105.947 35.9625 99.8722 34.3246 93.3893C32.6868 86.9064 32.4045 80.1553 33.4956 73.5583C34.5866 66.9614 37.0274 60.6606 40.6653 55.0502C44.3032 49.4399 49.0599 44.6408 54.6377 40.9531V40.9531ZM47.8799 116.641H57.1719C59.3226 116.641 61.3853 115.786 62.9061 114.265C64.4269 112.745 65.2812 110.682 65.2812 108.531C65.2812 106.381 64.4269 104.318 62.9061 102.797C61.3853 101.276 59.3226 100.422 57.1719 100.422H55.8203C55.4619 100.422 55.1181 100.279 54.8646 100.026C54.6111 99.7725 54.4688 99.4288 54.4688 99.0703C54.4688 98.7119 54.6111 98.3681 54.8646 98.1146C55.1181 97.8611 55.4619 97.7188 55.8203 97.7188C59.7633 97.7188 63.5449 96.1524 66.333 93.3643C69.1211 90.5761 70.6875 86.7946 70.6875 82.8516C70.6875 78.9085 69.1211 75.127 66.333 72.3389C63.5449 69.5507 59.7633 67.9844 55.8203 67.9844H54.4688C53.0349 67.9844 51.6598 67.4148 50.646 66.4009C49.6321 65.3871 49.0625 64.012 49.0625 62.5781C49.0625 61.1443 49.6321 59.7692 50.646 58.7553C51.6598 57.7415 53.0349 57.1719 54.4688 57.1719H57.1719C59.584 57.1725 61.9271 56.3663 63.8282 54.8816C65.7293 53.3969 67.0793 51.3191 67.6632 48.9787C68.2471 46.6383 68.0315 44.1698 67.0507 41.966C66.0698 39.7623 64.3801 37.9499 62.2504 36.8173C73.6838 31.8883 86.5722 31.5318 98.2606 35.8215C109.949 40.1111 119.547 48.7201 125.078 59.875H107.18C103.954 59.875 100.86 61.1566 98.5784 63.4378C96.2972 65.719 95.0156 68.813 95.0156 72.0391C95.0156 75.2652 96.2972 78.3591 98.5784 80.6404C100.86 82.9216 103.954 84.2031 107.18 84.2031H109.883C110.958 84.2031 111.99 84.6303 112.75 85.3907C113.51 86.1511 113.938 87.1824 113.938 88.2578C113.938 89.3332 113.51 90.3645 112.75 91.1249C111.99 91.8853 110.958 92.3125 109.883 92.3125H108.531C104.304 92.3151 100.17 93.556 96.6393 95.882C93.1092 98.2079 90.3377 101.517 88.6672 105.401C86.9967 109.284 86.5005 113.572 87.2397 117.734C87.9789 121.897 89.9212 125.751 92.8268 128.822C84.914 130.715 76.6526 130.592 68.7998 128.464C60.9469 126.335 53.7539 122.27 47.8799 116.641V116.641ZM98.8605 126.952C96.1224 124.919 94.095 122.075 93.0666 118.823C92.0383 115.572 92.0613 112.079 93.1323 108.841C94.2034 105.603 96.2681 102.786 99.0326 100.789C101.797 98.792 105.121 97.7178 108.531 97.7188H109.883C112.392 97.7188 114.798 96.722 116.573 94.9477C118.347 93.1734 119.344 90.767 119.344 88.2578C119.344 85.7486 118.347 83.3422 116.573 81.5679C114.798 79.7937 112.392 78.7969 109.883 78.7969H107.18C105.387 78.7969 103.669 78.0849 102.401 76.8176C101.134 75.5502 100.422 73.8313 100.422 72.0391C100.422 70.2468 101.134 68.5279 102.401 67.2606C103.669 65.9932 105.387 65.2812 107.18 65.2812H127.373C131.605 77.2487 130.992 90.396 125.665 101.918C120.338 113.439 110.719 122.423 98.8612 126.952H98.8605Z" fill="black"/>
<path d="M98.3713 51.3939C98.3713 48.7576 97.5895 46.1805 96.1249 43.9885C94.6602 41.7965 92.5784 40.088 90.1428 39.0791C87.7072 38.0703 85.0271 37.8063 82.4414 38.3206C79.8557 38.8349 77.4807 40.1044 75.6165 41.9686C73.7524 43.8328 72.4828 46.2078 71.9685 48.7935C71.4542 51.3792 71.7182 54.0593 72.7271 56.4949C73.7359 58.9305 75.4444 61.0123 77.6364 62.477C79.8284 63.9416 82.4055 64.7234 85.0418 64.7234C88.5758 64.7194 91.9639 63.3137 94.4627 60.8148C96.9616 58.316 98.3673 54.9279 98.3713 51.3939V51.3939ZM77.118 51.3939C77.118 49.8269 77.5827 48.295 78.4533 46.992C79.3239 45.689 80.5614 44.6735 82.0092 44.0738C83.457 43.4742 85.0501 43.3173 86.587 43.623C88.124 43.9288 89.5358 44.6834 90.6438 45.7915C91.7519 46.8996 92.5065 48.3114 92.8122 49.8484C93.1178 51.3854 92.9609 52.9785 92.3612 54.4263C91.7614 55.874 90.7458 57.1114 89.4428 57.982C88.1398 58.8526 86.6079 59.3172 85.0408 59.3171C82.9404 59.3145 80.9268 58.4788 79.4417 56.9934C77.9566 55.5081 77.1213 53.4944 77.119 51.3939H77.118Z" fill="black"/>
<path d="M92.3125 86.9062C92.3125 85.3024 91.8369 83.7345 90.9458 82.4009C90.0548 81.0673 88.7882 80.0279 87.3065 79.4142C85.8247 78.8004 84.1941 78.6398 82.6211 78.9527C81.048 79.2656 79.6031 80.0379 78.4689 81.1721C77.3348 82.3062 76.5625 83.7511 76.2496 85.3242C75.9367 86.8973 76.0973 88.5278 76.711 90.0096C77.3248 91.4914 78.3642 92.7579 79.6978 93.6489C81.0314 94.54 82.5992 95.0156 84.2031 95.0156C86.3531 95.0131 88.4143 94.1579 89.9346 92.6377C91.4548 91.1174 92.31 89.0562 92.3125 86.9062ZM84.2031 89.6094C83.6685 89.6094 83.1459 89.4508 82.7014 89.1538C82.2568 88.8568 81.9104 88.4346 81.7058 87.9407C81.5012 87.4468 81.4476 86.9032 81.5519 86.3789C81.6562 85.8545 81.9137 85.3729 82.2917 84.9948C82.6698 84.6168 83.1514 84.3594 83.6758 84.2551C84.2001 84.1508 84.7436 84.2043 85.2376 84.4089C85.7315 84.6135 86.1537 84.96 86.4507 85.4045C86.7477 85.849 86.9063 86.3716 86.9063 86.9062C86.9055 87.6229 86.6204 88.31 86.1136 88.8168C85.6069 89.3235 84.9198 89.6086 84.2031 89.6094V89.6094Z" fill="black"/>
</svg>
