<svg width="121" height="292" viewBox="0 0 121 292" fill="none" xmlns="http://www.w3.org/2000/svg">
<path d="M0 266.071H25.9286V292H43.2143V248.786H0V266.071ZM25.9286 196.929H0V214.214H43.2143V171H25.9286V196.929ZM77.7857 292H95.0714V266.071H121V248.786H77.7857V292ZM95.0714 196.929V171H77.7857V214.214H121V196.929H95.0714Z" fill="white"/>
<path d="M17.2857 77.7857H0V121H43.2143V103.714H17.2857V77.7857ZM0 43.2143H17.2857V17.2857H43.2143V0H0V43.2143ZM103.714 103.714H77.7857V121H121V77.7857H103.714V103.714ZM77.7857 0V17.2857H103.714V43.2143H121V0H77.7857Z" fill="white"/>
</svg>
