<svg width="41" height="41" viewBox="0 0 41 41" fill="none" xmlns="http://www.w3.org/2000/svg">
<circle cx="20.5" cy="20.5" r="20.5" fill="#323A47"/>
<path d="M20.5 30.1661C21.3009 30.1661 21.9502 29.5169 21.9502 28.7159C21.9495 27.9867 21.4074 27.3715 20.6842 27.2788C20.6231 27.2708 20.5616 27.2665 20.5 27.2658C20.4379 27.2666 20.3759 27.2709 20.3144 27.2788C19.9178 27.3292 19.5598 27.5419 19.3258 27.8661C19.1458 28.1128 19.0492 28.4106 19.0498 28.7159C19.0498 29.5169 19.6991 30.1661 20.5 30.1661ZM20.1089 28.4332C20.1863 28.3274 20.3034 28.2576 20.4333 28.2398C20.4772 28.235 20.5214 28.235 20.5653 28.2398C20.6964 28.2577 20.8146 28.3286 20.892 28.4361C20.9518 28.5171 20.9839 28.6152 20.9834 28.7159C20.9834 28.9829 20.7669 29.1993 20.5 29.1993C20.233 29.1993 20.0166 28.9829 20.0166 28.7159C20.0159 28.6142 20.0483 28.5149 20.1089 28.4332Z" fill="white"/>
<path d="M12.2824 19.0481H14.5384L17.1163 28.6719C17.1163 28.6869 17.1163 28.7009 17.1163 28.7159C17.1185 29.8198 17.66 30.8529 18.5664 31.4829V33.5498C18.5664 34.3507 19.2157 35 20.0166 35H20.9834C21.7843 35 22.4336 34.3507 22.4336 33.5498V31.4829C23.34 30.8529 23.8815 29.8198 23.8837 28.7159C23.8837 28.7009 23.8837 28.6869 23.8837 28.6719L26.4616 19.0481H28.7176C28.9846 19.0481 29.201 18.8317 29.201 18.5647C29.201 18.2978 28.9846 18.0814 28.7176 18.0814H26.7207L28.3435 12.0288C28.7771 10.4055 27.9538 8.70988 26.4099 8.04667L26.7966 6.60859C26.8658 6.35076 26.7128 6.08562 26.455 6.0165V6.0165C26.4142 6.00562 26.372 6.00012 26.3297 6.00006C26.1109 6.00006 25.9194 6.14695 25.8627 6.35825L22.7188 18.0814H20.9834V16.6312C20.9834 16.3642 20.767 16.1478 20.5 16.1478C20.2331 16.1478 20.0166 16.3642 20.0166 16.6312V18.0814H18.2812L15.1392 6.35819C15.0825 6.14689 14.891 6 14.6723 6C14.63 6.00006 14.5879 6.00556 14.5471 6.01644C14.2892 6.08556 14.1362 6.35064 14.2053 6.60847V6.60847L14.592 8.04667C13.0482 8.70988 12.2249 10.4055 12.6585 12.0288L14.2793 18.0814H12.2824C12.0154 18.0814 11.799 18.2978 11.799 18.5647C11.799 18.8317 12.0154 19.0481 12.2824 19.0481ZM20.9834 34.0332H20.0166C19.7497 34.0332 19.5332 33.8168 19.5332 33.5498V31.9546C19.627 31.9832 19.7266 31.9991 19.8199 32.0194C19.8658 32.0286 19.9098 32.0421 19.9557 32.0499C20.3155 32.1134 20.6836 32.1134 21.0433 32.0499C21.0917 32.0417 21.14 32.0272 21.1883 32.017C21.2812 31.9972 21.3759 31.9822 21.4658 31.9546L21.4668 33.5498C21.4668 33.8168 21.2503 34.0332 20.9834 34.0332ZM21.7133 30.8032C21.5822 30.8792 21.4443 30.9427 21.3015 30.9932C21.0987 31.0635 20.8873 31.1054 20.6731 31.1179C20.616 31.1222 20.5599 31.1329 20.5024 31.1329C20.0756 31.1302 19.6568 31.0166 19.2872 30.8032C18.5377 30.3669 18.0785 29.5634 18.0831 28.6961C18.0864 28.6758 18.0884 28.6553 18.0889 28.6347C18.1231 27.5322 18.901 26.5936 19.9779 26.3551C20.3229 26.2796 20.68 26.2796 21.025 26.3551C22.1019 26.5936 22.8798 27.5322 22.9141 28.6347C22.9136 28.6619 22.9145 28.6889 22.917 28.7159C22.9174 29.5768 22.4586 30.3724 21.7133 30.8032ZM26.1557 8.98977C27.1817 9.50464 27.7052 10.6693 27.4091 11.7784L25.7206 18.0814H23.7194L26.1557 8.98977ZM23.4603 19.0481H25.461L23.3568 26.9013C23.3128 26.8322 23.2602 26.7708 23.2118 26.705C23.1635 26.6393 23.1205 26.5745 23.0668 26.5141C22.9996 26.4353 22.9218 26.3652 22.8502 26.2932C22.7951 26.2395 22.7439 26.183 22.6849 26.1337C22.6027 26.0641 22.5128 26.0041 22.4244 25.9427C22.364 25.9007 22.3074 25.8548 22.2441 25.8166C22.1474 25.759 22.0449 25.7126 21.9429 25.6643C21.8781 25.6338 21.8172 25.5986 21.7496 25.572C21.7384 25.5676 21.7288 25.5608 21.7177 25.5565L23.4603 19.0481ZM20.0166 19.0481V20.4983C20.0166 20.7653 20.2331 20.9817 20.5 20.9817C20.767 20.9817 20.9834 20.7653 20.9834 20.4983V19.0481H22.4597L20.7717 25.3467C20.6813 25.3395 20.5914 25.3322 20.5 25.3322C20.4086 25.3322 20.3187 25.3395 20.2283 25.3467L18.5403 19.0481H20.0166ZM19.2838 25.5565C19.2736 25.5604 19.2645 25.5666 19.2543 25.5705C19.176 25.6015 19.104 25.6425 19.029 25.6788C18.9387 25.7228 18.8463 25.7634 18.7608 25.8146C18.6887 25.8576 18.624 25.9113 18.5558 25.9596C18.4756 26.0162 18.3939 26.0699 18.3194 26.1332C18.2551 26.1873 18.1991 26.2487 18.1396 26.3072C18.0705 26.3749 17.9994 26.4406 17.9366 26.5141C17.882 26.5774 17.836 26.647 17.7863 26.7142C17.7365 26.7814 17.6867 26.8365 17.6441 26.9032L15.5395 19.0481H17.5397L19.2838 25.5565ZM13.5904 11.778C13.2945 10.6688 13.8182 9.50427 14.8443 8.98977L17.2806 18.0814H15.2794L13.5904 11.778Z" fill="white"/>
</svg>
