<svg id="Layer_3" enable-background="new 0 0 64 64" height="512" viewBox="0 0 64 64" width="512" xmlns="http://www.w3.org/2000/svg"><path d="m57 43.349v-14.349c0-2.761-2.239-5-5-5-2.761 0-5 2.239-5 5v14.349c-3.253 1.885-5.353 5.541-4.951 9.655.452 4.629 4.188 8.421 8.81 8.933 6.034.667 11.141-4.038 11.141-9.937 0-3.699-2.014-6.922-5-8.651z" fill="#669e4f"/><path d="m53 39c0-5.33-1.878-10.082-4.813-13.199-.73.869-1.187 1.975-1.187 3.199v14.349c-3.253 1.885-5.353 5.541-4.951 9.655.089.916.312 1.796.64 2.628 5.889-1.621 10.311-8.449 10.311-16.632z" fill="#78b75b"/><circle cx="18" cy="9" fill="#f5b953" r="7"/><path d="m57 10c-.359 0-.707.041-1.045.113-.445-4.554-4.284-8.113-8.955-8.113s-8.51 3.559-8.955 8.113c-.338-.072-.686-.113-1.045-.113-2.761 0-5 2.239-5 5s2.239 5 5 5c1.717 0 3.231-.867 4.131-2.186 1.576 1.359 3.624 2.186 5.869 2.186s4.293-.827 5.869-2.186c.9 1.319 2.414 2.186 4.131 2.186 2.761 0 5-2.239 5-5s-2.239-5-5-5z" fill="#a1cdfb"/><g fill="#c7e2fc"><path d="m42 14c-.359 0-.707.041-1.045.113-.445-4.554-4.284-8.113-8.955-8.113s-8.51 3.559-8.955 8.113c-.338-.072-.686-.113-1.045-.113-2.761 0-5 2.239-5 5s2.239 5 5 5c1.717 0 3.231-.867 4.131-2.186 1.576 1.359 3.624 2.186 5.869 2.186s4.293-.827 5.869-2.186c.9 1.319 2.414 2.186 4.131 2.186 2.761 0 5-2.239 5-5s-2.239-5-5-5z"/><path d="m11 22h2v20h-2z"/><path d="m12 29c-.256 0-.512-.098-.707-.293l-4-4 1.414-1.414 3.293 3.293 3.293-3.293 1.414 1.414-4 4c-.195.195-.451.293-.707.293z"/><path d="m15.293 40.707-3.293-3.293-3.293 3.293-1.414-1.414 4-4c.391-.391 1.023-.391 1.414 0l4 4z"/><path d="m2 31h20v2h-20z"/><path d="m4.707 36.707-1.414-1.414 3.293-3.293-3.293-3.293 1.414-1.414 4 4c.391.391.391 1.023 0 1.414z"/><path d="m19.293 36.707-4-4c-.391-.391-.391-1.023 0-1.414l4-4 1.414 1.414-3.293 3.293 3.293 3.293z"/><path d="m21 42h2v20h-2z"/><path d="m22 49c-.256 0-.512-.098-.707-.293l-4-4 1.414-1.414 3.293 3.293 3.293-3.293 1.414 1.414-4 4c-.195.195-.451.293-.707.293z"/><path d="m25.293 60.707-3.293-3.293-3.293 3.293-1.414-1.414 4-4c.391-.391 1.023-.391 1.414 0l4 4z"/><path d="m12 51h20v2h-20z"/><path d="m14.707 56.707-1.414-1.414 3.293-3.293-3.293-3.293 1.414-1.414 4 4c.391.391.391 1.023 0 1.414z"/><path d="m29.293 56.707-4-4c-.391-.391-.391-1.023 0-1.414l4-4 1.414 1.414-3.293 3.293 3.293 3.293z"/></g><path d="m52 59v-2c2.757 0 5-2.243 5-5h2c0 3.86-3.14 7-7 7z" fill="#fff"/><path d="m47 52h-2c0-3.521 2.612-6.442 6-6.929v-18.071h2v19c0 .552-.448 1-1 1-2.757 0-5 2.243-5 5z" fill="#fff"/><path d="m40 27h4v2h-4z" fill="#669e4f"/><path d="m40 31h4v2h-4z" fill="#669e4f"/><path d="m40 35h4v2h-4z" fill="#669e4f"/><path d="m40 39h4v2h-4z" fill="#669e4f"/></svg>